# xmcd
#
# Track frame offsets: 
#        150
#        3547
#        17565
#        35375
#        49360
#        65850
#        78816
#        93333
#        107729
#        126978
#        148044
#
# Disc length: 2229 seconds
#
# Revision: 0
# Processed by: cddbd v1.4PL0 Copyright (c) Steve Scherf et al.
# Submitted via: ExactAudioCopy v0.90a11
#
DISCID=9208b30b
DTITLE=Ashley Park - The American Scene
DYEAR=1900
DGENRE=
TTITLE0=The American Scene
TTITLE1=I Know I Love You
TTITLE2=The Last Day In The Life Of Grand
TTITLE3=Around The World
TTITLE4=The Great Divide
TTITLE5=Arkansas, Until The Sun
TTITLE6=The Old Masquerade
TTITLE7=Re-Entry Day
TTITLE8=Little Dogs
TTITLE9=Rocket On The Highway
TTITLE10=Ghost World
EXTD=
EXTT0=
EXTT1=
EXTT2=
EXTT3=
EXTT4=
EXTT5=
EXTT6=
EXTT7=
EXTT8=
EXTT9=
EXTT10=
PLAYORDER=
